# xmcd
#
# Track frame offsets: 
#        150
#        16807
#        40705
#        61272
#        85782
#        104900
#        119100
#        146545
#        175862
#        218910
#        257340
#
# Disc length: 4064 seconds
#
# Revision: 6
# Processed by: cddbd v1.5.2PL0 Copyright (c) Steve Scherf et al.
# Submitted via: ExactAudioCopyFreeDBPlugin 1.0
#
DISCID=960fde0b
DTITLE=Jimmy Page and The Black Crowes - Live at the Greek Disc 1
DYEAR=2000
DGENRE=Rock
TTITLE0=Celebration Day
TTITLE1=Custard Pie
TTITLE2=Sick Again
TTITLE3=What Is And What Should Never Be
TTITLE4=Woke Up This Morning
TTITLE5=Shapes Of Things To Come
TTITLE6=Sloppy Drunk
TTITLE7=Ten Years Gone
TTITLE8=In My Time Of Dying
TTITLE9=Your Time Is Gonna Come
TTITLE10=Enhanced CD
EXTD=YEAR: 2000 ID3G: 17
EXTT0=
EXTT1=
EXTT2=
EXTT3=
EXTT4=
EXTT5=
EXTT6=
EXTT7=
EXTT8=
EXTT9=
EXTT10=
PLAYORDER=
